<svg width="128" height="128" viewBox="0 0 128 128" fill="none" xmlns="http://www.w3.org/2000/svg">
  <!-- Main Card Shadow/Depth -->
  <rect x="22" y="24" width="84" height="84" rx="8" fill="#9a9996"/>
  
  <!-- Main Card Body -->
  <rect x="22" y="20" width="84" height="84" rx="8" fill="#f6f5f4"/>
  <rect x="22" y="20" width="84" height="84" rx="8" stroke="#c0bfbc" stroke-width="2"/>

  <!-- Hash Symbol (Simplified) -->
  <g transform="translate(36, 36) scale(0.4)">
    <rect x="12" y="0" width="10" height="110" rx="5" fill="#241f31"/>
    <rect x="42" y="0" width="10" height="110" rx="5" fill="#241f31"/>
    <rect x="72" y="0" width="10" height="110" rx="5" fill="#241f31"/>
    <rect x="0" y="30" width="94" height="10" rx="5" fill="#241f31"/>
    <rect x="0" y="70" width="94" height="10" rx="5" fill="#241f31"/>
  </g>

  <!-- Small Card Shadow/Depth -->
  <rect x="14" y="74" width="48" height="38" rx="4" fill="#77767b"/>
  
  <!-- Small Card Body -->
  <rect x="14" y="70" width="48" height="38" rx="4" fill="#e6e4e1"/>
  <rect x="14" y="70" width="48" height="38" rx="4" stroke="#9a9996" stroke-width="2"/>
  <rect x="22" y="82" width="32" height="4" rx="2" fill="#c0bfbc"/>
  <rect x="22" y="92" width="24" height="4" rx="2" fill="#c0bfbc"/>

  <!-- Checkmark Badge Shadow/Depth -->
  <circle cx="94" cy="94" r="22" fill="#1f8f52"/>
  
  <!-- Checkmark Badge Body -->
  <circle cx="94" cy="90" r="22" fill="#33d17a"/>
  <circle cx="94" cy="90" r="22" stroke="#1f8f52" stroke-width="2"/>
  <path d="M84 90L91 97L104 83" stroke="white" stroke-width="6" stroke-linecap="round" stroke-linejoin="round"/>
</svg>
